<!-- This icon is modified version of Bootstrap Icons -->
<!-- The original version is licensed under MIT License, you can get it from the link below. -->
<!-- https://icons.getbootstrap.com/icons/hand-index-thumb/ -->
<?xml version="1.0" encoding="UTF-8"?>
<svg id="hand-index-thin" xmlns="http://www.w3.org/2000/svg" viewBox="0 0 16 16">
  <path d="M12.419922,15.5h-6.301758c-.381348,0-.724121-.211914-.894531-.552734l-1.231934-2.464844-2.493652-4.150879c-.287598-.483887-.129395-1.109375.352051-1.395996.400391-.238281.909668-.174805,1.23877.15332l2.410645,2.410156.000488-7.749023c0-.689453.560547-1.25,1.25-1.25s1.25.560547,1.25,1.25v6.25-3.01123l.477051-.021484c.506836-.02002.819824-.006836,1.020996.032227.225586.04541.448242.15332.595703.236328.25293.137207.40625.418457.40625.75v2.01416-2.019043l.558594-.053711c.428711-.031738.741211-.006836.942383.07373.25293.100098.511719.367676.683594.574219.087891.104492.165039.208984.220703.285645l.094727.130859v1.508301-1.5h.841797c.827148,0,1.5.672852,1.5,1.5,0,.052734-.001953.105957-.008789.158691l-.269531,2.706543c-.041016.416016-.172852.826172-.380859,1.188477l-1.394531,2.442383c-.178711.310547-.510742.503906-.868164.503906Z" style="stroke-linejoin: round; stroke-width: .5px;"/>
</svg>