<?xml version="1.0" encoding="UTF-8"?>
<svg id="logo" data-name="logo" xmlns="http://www.w3.org/2000/svg" viewBox="0 0 100 100">
  <g>
    <rect x="2" y="2" width="96" height="96" rx="4" ry="4" style="fill: #fff;"/>
    <rect x="2" y="2" width="96" height="96" rx="4" ry="4" style="fill: none; stroke: #231815; stroke-linecap: round; stroke-linejoin: round; stroke-width: 2px;"/>
  </g>
  <path d="M10.848145,46.240234V11.056152h5.327637l6.720215,18.815918c.447754,1.18457.879883,2.400391,1.295898,3.647949.415527,1.248047.832031,2.480469,1.248047,3.696289h.191895c.447754-1.21582.871582-2.448242,1.271973-3.696289.399902-1.247559.791992-2.463379,1.17627-3.647949l6.719727-18.815918h5.328125v35.184082h-4.12793v-19.487793c0-1.023926.031738-2.13623.096191-3.336426.063477-1.199707.144043-2.415527.239746-3.647949.096191-1.231445.175781-2.359375.240234-3.383789h-.192383l-2.832031,8.016113-6.623535,18.288086h-2.976074l-6.672363-18.288086-2.831543-8.016113h-.192383c.127441,1.024414.231934,2.152344.312012,3.383789.07959,1.232422.144043,2.448242.191895,3.647949.04834,1.200195.072266,2.3125.072266,3.336426v19.487793h-3.983887Z"/>
</svg>